Coordinates
version=1
nRows=9
nColumns=24
inDegrees=yes

Units are S.I. units (second, meters, Newtons, ...)
Angles are in degrees.

endheader
time	pelvis_tilt	pelvis_list	pelvis_rotation	pelvis_tx	pelvis_ty	pelvis_tz	hip_flexion_r	hip_adduction_r	hip_rotation_r	knee_angle_r	ankle_angle_r	subtalar_angle_r	mtp_angle_r	hip_flexion_l	hip_adduction_l	hip_rotation_l	knee_angle_l	ankle_angle_l	subtalar_angle_l	mtp_angle_l	lumbar_extension	lumbar_bending	lumbar_rotation
      1.25000000	     18.33295595	      0.63728915	      2.05931156	     -0.49315618	      0.92491421	      0.28994071	      9.91010360	      0.30423028	     -1.87730533	    -14.96110107	     11.69350436	      0.15673258	     43.24085296	    -33.88954754	      1.49320050	     -5.98648493	    -13.89388598	     32.03026820	     14.74477287	     17.00813122	    -35.40786743	      0.83065157	     -2.62853387
      1.25500000	     18.39664689	      0.61229862	      2.16964574	     -0.48581843	      0.92398731	      0.29027770	      9.93997054	      0.44244555	     -1.56511261	    -15.95161049	     12.02172620	      0.24926222	     43.26316627	    -34.07249409	      1.29076793	     -6.05406094	    -14.65193458	     32.06845101	     15.02559075	     17.21235080	    -35.39811037	      0.96075343	     -2.73360470
      1.26000000	     18.40687102	      0.63218952	      2.26374469	     -0.47835279	      0.92297825	      0.29064942	     10.01059019	      0.53227990	     -1.26226504	    -16.99568019	     12.52292400	      0.58531261	     42.51856792	    -34.22140279	      1.14999474	     -6.02751853	    -15.35816413	     31.87346575	     15.05762352	     19.11897242	    -35.30901587	      1.03970622	     -2.86314787
      1.26500000	     18.47113043	      0.59336668	      2.48389514	     -0.47079287	      0.92216290	      0.29090804	      9.96946723	      0.69392998	     -1.27698030	    -17.94637247	     12.44683731	      0.76053360	     42.60498618	    -34.35610562	      0.86004416	     -5.95882014	    -16.22272343	     31.84971959	     15.30086837	     19.32136744	    -35.27517801	      1.23171835	     -3.02018849
      1.27000000	     18.40836235	      0.60186837	      2.54228899	     -0.46342643	      0.92121014	      0.29120199	     10.17773613	      0.80328800	     -1.30253981	    -18.99790213	     11.17261246	      0.55449464	     45.30293135	    -34.32967303	      0.74067828	     -5.89358756	    -17.09701601	     31.54947505	     15.23439306	     21.47378432	    -35.12216083	      1.30807776	     -3.00483610
      1.27500000	     18.40655970	      0.49765902	      2.71200603	     -0.45611610	      0.92062954	      0.29144035	     10.26007906	      1.00669973	     -1.54104282	    -19.84525243	      9.32395803	     -0.02215046	     45.71942821	    -34.29945983	      0.43823500	     -5.78897032	    -18.07116452	     31.31048046	     15.26241845	     22.52136636	    -35.04314509	      1.54513026	     -3.12737304
      1.28000000	     18.27752040	      0.39518757	      2.84261703	     -0.44894440	      0.92000281	      0.29160287	     10.58465826	      1.13554375	     -1.79813702	    -20.82902433	      8.08310456	     -0.27242358	     45.06369031	    -34.08149398	      0.19106258	     -5.56591023	    -19.10331311	     30.95629889	     15.12882240	     24.72618711	    -34.84857803	      1.77320608	     -3.11788682
      1.28500000	     18.06013932	      0.27017935	      2.93050191	     -0.44177321	      0.91937912	      0.29202311	     10.99632749	      1.28971456	     -1.85731980	    -21.80551794	      7.84177866	     -0.03928364	     45.24676080	    -33.71025460	     -0.05222840	     -5.30634539	    -20.25583908	     30.72249727	     14.98007017	     25.06846615	    -34.55670064	      1.98280661	     -3.09293341
      1.29000000	     17.86035832	      0.21019699	      3.00111830	     -0.43457524	      0.91891873	      0.29233367	     11.40298109	      1.35647047	     -1.94504006	    -22.87865393	      8.20906293	      0.37586563	     47.04504575	    -33.31892097	     -0.19344029	     -4.93791694	    -21.44724728	     30.06562828	     14.38141879	     28.00853724	    -34.29357849	      2.12701180	     -3.07192173
